<?xml version="1.0" encoding="utf-8"?>
<!-- Generator: Adobe Illustrator 28.1.0, SVG Export Plug-In . SVG Version: 6.00 Build 0)  -->
<svg version="1.1" id="Layer_1" xmlns="http://www.w3.org/2000/svg" xmlns:xlink="http://www.w3.org/1999/xlink" x="0px" y="0px"
	 viewBox="0 0 130 28" style="enable-background:new 0 0 130 28;" xml:space="preserve">
<style type="text/css">
	.st0{fill:#1DA6DB;}
	.st1{fill:#0FEF34;}
	.st2{fill:#022D60;}
</style>
<g>
	<g>
		<path class="st0" d="M12.2,27c0,0-0.1,0-0.1,0c-0.2,0-5.5-1-6.8-6.3C2,18.7,0,15.1,0,11.2C0,5,5,0,11.2,0h6.2
			c6.2,0,11.2,5,11.2,11.2c0,6.2-5,11.2-11.2,11.2H12c-0.8,0.2-0.8,0.6-0.9,0.8c-0.1,0.7,0.4,1.8,1.4,2.2c0.4,0.2,0.6,0.6,0.4,1
			C12.9,26.8,12.6,27,12.2,27L12.2,27z M6.9,20c0.4,2.1,1.6,3.4,2.7,4.2c-0.1-0.4-0.1-0.8-0.1-1.2c0.1-1.2,1-2,2.3-2.2
			c0,0,0.1,0,0.2,0h5.5c5.3,0,9.5-4.3,9.5-9.5c0-5.3-4.3-9.5-9.5-9.5h-6.2c-5.3,0-9.5,4.3-9.5,9.5c0,3.4,1.8,6.6,4.8,8.3
			C6.7,19.6,6.8,19.8,6.9,20z"/>
		<path class="st1" d="M32.3,27c-0.4,0-0.7-0.2-0.8-0.6c-0.1-0.4,0.1-0.8,0.4-1c1-0.5,1.5-1.5,1.4-2.2c0-0.2-0.1-0.6-0.9-0.8h-5.4
			c-6.2,0-11.2-5-11.2-11.2C15.9,5,20.9,0,27.1,0h6.2c6.2,0,11.2,5,11.2,11.2c0,3.9-2,7.5-5.3,9.5c-1.3,5.3-6.5,6.2-6.8,6.3
			C32.4,27,32.4,27,32.3,27z M27.1,1.7c-5.3,0-9.5,4.3-9.5,9.5c0,5.3,4.3,9.5,9.5,9.5h5.5c0.1,0,0.1,0,0.2,0C34,21,34.9,21.8,35,23
			c0,0.4,0,0.8-0.1,1.2c1.1-0.8,2.3-2.1,2.7-4.1c0-0.2,0.2-0.4,0.4-0.6c3-1.7,4.8-4.9,4.8-8.3c0-5.3-4.3-9.5-9.5-9.5H27.1z"/>
		<path class="st0" d="M22.3,3c0.6-0.3,1.1-0.6,1.8-0.8c-0.6-0.4-1.1-0.8-1.8-1.1c-0.6,0.3-1.2,0.7-1.8,1.1
			C21.1,2.4,21.7,2.7,22.3,3z"/>
		<path class="st0" d="M22.3,19.4c-0.6,0.3-1.1,0.6-1.8,0.8c0.6,0.4,1.1,0.8,1.8,1.1c0.6-0.3,1.2-0.7,1.8-1.1
			C23.4,20,22.8,19.8,22.3,19.4z"/>
		<path class="st2" d="M63.9,15.6c0,0-0.1,0-0.2,0c-0.1,0-0.1,0-0.1,0.1c-1.1,1.7-2.8,2.6-4.8,2.6c-3.2,0-5.5-2.4-5.5-5.7
			c0-3.3,2.3-5.8,5.5-5.8c1.8,0,3.4,0.9,4.5,2.4c0,0,0.1,0.1,0.1,0.1c0.1,0,0.1,0,0.2,0l1.3-1C65,8.1,65,8,65,7.9
			c-1.3-2-3.6-3.1-6.1-3.1c-4.3,0-7.6,3.3-7.6,7.7c0,4.4,3.2,7.6,7.6,7.6c2.7,0,5-1.2,6.4-3.4c0.1-0.1,0-0.2-0.1-0.3L63.9,15.6
			L63.9,15.6z"/>
		<path class="st2" d="M74.5,4.8c-4.3,0-7.6,3.3-7.6,7.7s3.2,7.7,7.6,7.7c4.4,0,7.6-3.3,7.6-7.7S78.8,4.8,74.5,4.8z M74.5,18.2
			c-3.2,0-5.5-2.4-5.5-5.7c0-3.3,2.3-5.8,5.5-5.8c3.2,0,5.5,2.4,5.5,5.8C80,15.8,77.7,18.2,74.5,18.2z"/>
		<path class="st2" d="M92.1,4.8c-1.9,0-3.7,0.7-5,2V5.3c0-0.1-0.1-0.2-0.2-0.2h-1.6c-0.1,0-0.2,0.1-0.2,0.2v14.2
			c0,0.1,0.1,0.2,0.2,0.2h1.6c0.1,0,0.2-0.1,0.2-0.2V9.1c1.2-1.6,2.9-2.5,4.7-2.5c2.6,0,4,1.7,4,4.8v8.1c0,0.1,0.1,0.2,0.2,0.2h1.6
			c0.1,0,0.2-0.1,0.2-0.2v-8.5C97.8,7.2,95.6,4.8,92.1,4.8L92.1,4.8z"/>
		<path class="st2" d="M113.9,5.1h-1.8c-0.1,0-0.2,0-0.2,0.1l-5.2,11.7l-5.2-11.7c0-0.1-0.1-0.1-0.2-0.1h-1.8c-0.1,0-0.1,0-0.2,0.1
			c0,0.1,0,0.1,0,0.2l6.5,14.2c0,0.1,0.1,0.1,0.2,0.1h1.5c0.1,0,0.2,0,0.2-0.1l6.4-14.2c0-0.1,0-0.1,0-0.2
			C114,5.1,114,5.1,113.9,5.1L113.9,5.1z"/>
		<path class="st2" d="M122.4,4.8c-4.3,0-7.6,3.3-7.6,7.7s3.2,7.7,7.6,7.7c4.4,0,7.6-3.3,7.6-7.7S126.7,4.8,122.4,4.8z M122.4,18.2
			c-3.2,0-5.5-2.4-5.5-5.7c0-3.3,2.3-5.8,5.5-5.8c3.2,0,5.5,2.4,5.5,5.8C127.9,15.8,125.6,18.2,122.4,18.2z"/>
	</g>
</g>
</svg>
